<?xml version="1.0" encoding="UTF-8" standalone="no"?>
<!-- Generator: Adobe Illustrator 19.0.0, SVG Export Plug-In . SVG Version: 6.00 Build 0)  -->

<svg
   xmlns:dc="http://purl.org/dc/elements/1.1/"
   xmlns:cc="http://creativecommons.org/ns#"
   xmlns:rdf="http://www.w3.org/1999/02/22-rdf-syntax-ns#"
   xmlns:svg="http://www.w3.org/2000/svg"
   xmlns="http://www.w3.org/2000/svg"
   xmlns:sodipodi="http://sodipodi.sourceforge.net/DTD/sodipodi-0.dtd"
   xmlns:inkscape="http://www.inkscape.org/namespaces/inkscape"
   version="1.1"
   id="Capa_1"
   x="0px"
   y="0px"
   viewBox="0 0 511.998 511.998"
   style="enable-background:new 0 0 511.998 511.998;"
   xml:space="preserve"
   sodipodi:docname="employee-mass-upload.svg"
   inkscape:version="0.92.2 (5c3e80d, 2017-08-06)"><metadata
     id="metadata47"><rdf:RDF><cc:Work
         rdf:about=""><dc:format>image/svg+xml</dc:format><dc:type
           rdf:resource="http://purl.org/dc/dcmitype/StillImage" /><dc:title></dc:title></cc:Work></rdf:RDF></metadata><defs
     id="defs45"><clipPath
       clipPathUnits="userSpaceOnUse"
       id="clipPath893"><circle
         style="fill:#ff0000;fill-opacity:1;stroke:none;stroke-width:3.05613351;stroke-linecap:round;stroke-linejoin:round;stroke-miterlimit:4;stroke-dasharray:none;stroke-dashoffset:8;stroke-opacity:1"
         id="circle895"
         cx="232.67029"
         cy="207.22708"
         r="266.41953" /></clipPath><clipPath
       clipPathUnits="userSpaceOnUse"
       id="clipPath893-7"><circle
         style="fill:#ff0000;fill-opacity:1;stroke:none;stroke-width:3.05613351;stroke-linecap:round;stroke-linejoin:round;stroke-miterlimit:4;stroke-dasharray:none;stroke-dashoffset:8;stroke-opacity:1"
         id="circle895-1"
         cx="232.67029"
         cy="207.22708"
         r="266.41953" /></clipPath><clipPath
       clipPathUnits="userSpaceOnUse"
       id="clipPath893-79"><circle
         style="fill:#ff0000;fill-opacity:1;stroke:none;stroke-width:3.05613351;stroke-linecap:round;stroke-linejoin:round;stroke-miterlimit:4;stroke-dasharray:none;stroke-dashoffset:8;stroke-opacity:1"
         id="circle895-6"
         cx="232.67029"
         cy="207.22708"
         r="266.41953" /></clipPath></defs><sodipodi:namedview
     pagecolor="#ffffff"
     bordercolor="#666666"
     borderopacity="1"
     objecttolerance="10"
     gridtolerance="10"
     guidetolerance="10"
     inkscape:pageopacity="0"
     inkscape:pageshadow="2"
     inkscape:window-width="1366"
     inkscape:window-height="715"
     id="namedview43"
     showgrid="false"
     inkscape:zoom="0.65186663"
     inkscape:cx="63.303699"
     inkscape:cy="230.272"
     inkscape:window-x="-8"
     inkscape:window-y="-8"
     inkscape:window-maximized="1"
     inkscape:current-layer="g6" /><g
     id="g10"><g
       id="g8"><g
         id="g6"><path
           d="M 368.09382,393.29685 276.285,324.053 c -7.253,-3.951 -11.75,-11.537 -11.75,-19.797 v -28.228 c 5.709,-7.484 22.067,-30.814 29.884,-61.764 8.064,-6.468 12.783,-16.145 12.783,-26.53 V 153.6 c 0,-8.218 -3.072,-16.188 -8.533,-22.4 V 85.803 c 0.478,-4.685 2.347,-32.631 -17.86,-55.68 C 263.289,10.129 234.839,0 196.268,0 157.689,0 129.247,10.129 111.72,30.123 91.513,53.172 93.382,81.118 93.868,85.803 V 131.2 c -5.47,6.212 -8.533,14.182 -8.533,22.4 v 34.133 c 0,10.385 4.71,20.062 12.774,26.53 7.817,30.95 24.175,54.281 29.892,61.764 v 28.228 c 0,8.26 -4.506,15.846 -11.759,19.797 l -76.126,41.532 c -24.747,13.5 -40.115,39.39 -40.115,67.576 v 36.173 c 0,4.71 3.814,8.533 8.533,8.533 h 290.372 c -16.145,-21.427 -0.74573,-47.966 -0.74573,-76.8 10e-4,-24.993 57.49155,11.95985 69.93355,-7.76915 z"
           id="path2-6"
           style="fill:#888888;fill-opacity:1"
           clip-path="url(#clipPath893-7)"
           inkscape:connector-curvature="0"
           transform="matrix(0.61134159,0,0,0.61134159,120.60715,94.99867)"
           sodipodi:nodetypes="ccsccsscccscccssccsccsssccc" /><path
           d="m 292.814,333.073 -16.529,-9.02 c -7.253,-3.951 -11.75,-11.537 -11.75,-19.797 v -28.228 c 5.709,-7.484 22.067,-30.814 29.884,-61.764 8.064,-6.468 12.783,-16.145 12.783,-26.53 V 153.6 c 0,-8.218 -3.072,-16.188 -8.533,-22.4 V 85.803 c 0.478,-4.685 2.347,-32.631 -17.86,-55.68 C 263.289,10.129 234.839,0 196.268,0 157.689,0 129.247,10.129 111.72,30.123 91.513,53.172 93.382,81.118 93.868,85.803 V 131.2 c -5.47,6.212 -8.533,14.182 -8.533,22.4 v 34.133 c 0,10.385 4.71,20.062 12.774,26.53 7.817,30.95 24.175,54.281 29.892,61.764 v 28.228 c 0,8.26 -4.506,15.846 -11.759,19.797 l -76.126,41.532 c -24.747,13.5 -40.115,39.39 -40.115,67.576 v 36.173 c 0,4.71 3.814,8.533 8.533,8.533 h 290.372 c 44.07885,-38.99229 94.3417,-55.25115 94.3417,-84.08515 10e-4,-24.993 -77.74512,-48.50683 -100.4337,-60.70785 z"
           id="path2"
           style="fill:#888888;fill-opacity:1"
           clip-path="url(#clipPath893)"
           inkscape:connector-curvature="0"
           transform="matrix(0.61134159,0,0,0.61134159,-17.004293,21.476786)"
           sodipodi:nodetypes="ccsccsscccscccssccsccsssccc" /><path
           d="m 292.814,333.073 -16.529,-9.02 c -7.253,-3.951 -11.75,-11.537 -11.75,-19.797 v -28.228 c 5.709,-7.484 22.067,-30.814 29.884,-61.764 8.064,-6.468 12.783,-16.145 12.783,-26.53 V 153.6 c 0,-8.218 -3.072,-16.188 -8.533,-22.4 V 85.803 c 0.478,-4.685 2.347,-32.631 -17.86,-55.68 C 263.289,10.129 234.839,0 196.268,0 157.689,0 129.247,10.129 111.72,30.123 91.513,53.172 93.382,81.118 93.868,85.803 V 131.2 c -5.47,6.212 -8.533,14.182 -8.533,22.4 v 34.133 c 0,10.385 4.71,20.062 12.774,26.53 7.817,30.95 24.175,54.281 29.892,61.764 v 28.228 c 0,8.26 -4.506,15.846 -11.759,19.797 l -76.126,41.532 c -24.747,13.5 -40.115,39.39 -40.115,67.576 v 36.173 c 0,4.71 3.814,8.533 8.533,8.533 h 290.372 c -16.145,-21.427 -25.839,-47.966 -25.839,-76.8 10e-4,-24.993 7.305,-48.264 19.747,-67.993 z"
           id="path2-7"
           style="fill:#888888;fill-opacity:1"
           clip-path="url(#clipPath893-79)"
           inkscape:connector-curvature="0"
           transform="matrix(0.61134159,0,0,0.61134159,258.18154,169.75872)" /><path
           d="m 398.91187,269.73834 c -73.00902,0 -132.40979,59.40077 -132.40979,132.40979 0,73.00901 59.40077,132.40978 132.40979,132.40978 73.00902,0 132.40979,-59.40077 132.40979,-132.40978 0,-73.00902 -59.40077,-132.40979 -132.40979,-132.40979 z"
           id="path4-2"
           inkscape:connector-curvature="0"
           sodipodi:nodetypes="sssss"
           style="fill:#ffffff;fill-opacity:1;stroke-width:1.19360137" /><path
           d="m 401.064,290.132 c -61.167,0 -110.933,49.766 -110.933,110.933 0,61.167 49.766,110.933 110.933,110.933 61.167,0 110.933,-49.766 110.933,-110.933 0,-61.167 -49.766,-110.933 -110.933,-110.933 z"
           id="path4"
           inkscape:connector-curvature="0"
           sodipodi:nodetypes="sssss"
           style="fill:#888888;fill-opacity:1" /><g
           aria-label="+"
           style="font-style:normal;font-weight:normal;font-size:251.18994141px;line-height:1.25;font-family:sans-serif;letter-spacing:0px;word-spacing:0px;fill:#000000;fill-opacity:1;stroke:none;stroke-width:6.27974844"
           id="text865"><path
             d="m 483.03418,420.00859 h -65.37317 v 64.7599 h -33.60646 v -64.7599 h -65.37317 v -32.87056 h 65.37317 v -64.75991 h 33.60646 v 64.75991 h 65.37317 z"
             style="font-style:normal;font-variant:normal;font-weight:bold;font-stretch:normal;font-family:sans-serif;-inkscape-font-specification:'sans-serif Bold';fill:#ffffff;fill-opacity:1;stroke-width:6.27974844"
             id="path867" /></g></g></g></g><g
     id="g12" /><g
     id="g14" /><g
     id="g16" /><g
     id="g18" /><g
     id="g20" /><g
     id="g22" /><g
     id="g24" /><g
     id="g26" /><g
     id="g28" /><g
     id="g30" /><g
     id="g32" /><g
     id="g34" /><g
     id="g36" /><g
     id="g38" /><g
     id="g40" /></svg>