<?xml version="1.0" encoding="utf-8"?>
<!-- Generator: Adobe Illustrator 16.0.0, SVG Export Plug-In . SVG Version: 6.00 Build 0)  -->
<!DOCTYPE svg PUBLIC "-//W3C//DTD SVG 1.1//EN" "http://www.w3.org/Graphics/SVG/1.1/DTD/svg11.dtd">
<svg version="1.1"
	 id="Layer_1" xmlns:dc="http://purl.org/dc/elements/1.1/" xmlns:cc="http://creativecommons.org/ns#" xmlns:rdf="http://www.w3.org/1999/02/22-rdf-syntax-ns#" xmlns:svg="http://www.w3.org/2000/svg" xmlns:sodipodi="http://sodipodi.sourceforge.net/DTD/sodipodi-0.dtd" xmlns:inkscape="http://www.inkscape.org/namespaces/inkscape" inkscape:version="0.92.2 (5c3e80d, 2017-08-06)" sodipodi:docname="employee.svg"
	 xmlns="http://www.w3.org/2000/svg" xmlns:xlink="http://www.w3.org/1999/xlink" x="0px" y="0px" width="128px" height="128px"
	 viewBox="0 0 128 128" enable-background="new 0 0 128 128" xml:space="preserve">
<path id="path2" fill="#3B97D3" d="M64.4,77h-3.2c-1.8,0-3.2,1.6-3.2,3.3V82.4c0,1.3,0.7,2.399,1.8,2.899L58.4,103h8.8L66,85.3
	c1.1-0.5,2-1.6,2-2.899V80.3C68,78.6,66.1,77,64.4,77L64.4,77z"/>
<path id="path4" fill="#2C3E50" d="M109.8,82.4C103.2,80.6,80.1,74.8,80.1,74.8S74.1,106,67,106h-8.8c-6.4,0-11.5-27.9-13.2-31
	c0,0-23.1,5.7-29.7,7.5C8.7,84.3,7.2,99.3,7.2,110c0,0,14.4,8.5,55.4,8.5c40.9,0,55.3-8.5,55.3-8.5
	C117.9,99.3,116.5,84.2,109.8,82.4z M11.3,107.4C11.6,93,14.5,86.8,16.4,86.3c4.9-1.3,19.2-4.899,26-6.6c0.2,0.899,0.5,1.8,0.7,2.7
	c4.3,16.1,7.8,27.5,15.1,27.5H67c5.2,0,9.1-5.5,13.1-18.4c1.4-4.4,2.4-8.8,3.101-11.9C90.1,81.4,104,84.9,108.8,86.2
	c1.9,0.5,4.8,6.7,5.101,21.1c-5.101,2.101-20.4,7-51.2,7C31.8,114.4,16.4,109.5,11.3,107.4z"/>
<path id="path6" fill="#2C3E50" d="M84.8,24.9C81.7,10.6,68,8.4,61.4,8.4c-8.1,0-21.2,1.8-23.4,18.8c-1.7,13.1,4.4,30,8.8,35.7
	c5,6.3,9.4,9.5,15.6,9.5c5.7,0,9.6-2.801,14.9-10.4C82.1,55,87.3,37,84.8,24.9z M74,59.7c-5,7.3-7.9,8.6-11.6,8.6
	c-4.5,0-7.9-2.2-12.5-8c-3.5-4.5-9.6-20.2-8-32.7c1.4-10.6,7.4-15.3,19.4-15.3c15,0,18.601,9.4,19.5,13.4
	C83.2,36.7,78.3,53.5,74,59.7z"/>
</svg>
