<?xml version="1.0" encoding="UTF-8" standalone="no"?>
<!-- Generator: Adobe Illustrator 19.0.0, SVG Export Plug-In . SVG Version: 6.00 Build 0)  -->

<svg
   xmlns:dc="http://purl.org/dc/elements/1.1/"
   xmlns:cc="http://creativecommons.org/ns#"
   xmlns:rdf="http://www.w3.org/1999/02/22-rdf-syntax-ns#"
   xmlns:svg="http://www.w3.org/2000/svg"
   xmlns="http://www.w3.org/2000/svg"
   xmlns:sodipodi="http://sodipodi.sourceforge.net/DTD/sodipodi-0.dtd"
   xmlns:inkscape="http://www.inkscape.org/namespaces/inkscape"
   version="1.1"
   id="Capa_1"
   x="0px"
   y="0px"
   viewBox="0 0 511.998 511.998"
   style="enable-background:new 0 0 511.998 511.998;"
   xml:space="preserve"
   sodipodi:docname="employee-add.svg"
   inkscape:version="0.92.2 (5c3e80d, 2017-08-06)"><metadata
     id="metadata47"><rdf:RDF><cc:Work
         rdf:about=""><dc:format>image/svg+xml</dc:format><dc:type
           rdf:resource="http://purl.org/dc/dcmitype/StillImage" /></cc:Work></rdf:RDF></metadata><defs
     id="defs45"><clipPath
       clipPathUnits="userSpaceOnUse"
       id="clipPath893"><circle
         style="fill:#ff0000;fill-opacity:1;stroke:none;stroke-width:3.05613351;stroke-linecap:round;stroke-linejoin:round;stroke-miterlimit:4;stroke-dasharray:none;stroke-dashoffset:8;stroke-opacity:1"
         id="circle895"
         cx="232.67029"
         cy="207.22708"
         r="266.41953" /></clipPath></defs><sodipodi:namedview
     pagecolor="#ffffff"
     bordercolor="#666666"
     borderopacity="1"
     objecttolerance="10"
     gridtolerance="10"
     guidetolerance="10"
     inkscape:pageopacity="0"
     inkscape:pageshadow="2"
     inkscape:window-width="1366"
     inkscape:window-height="715"
     id="namedview43"
     showgrid="false"
     inkscape:zoom="0.65186663"
     inkscape:cx="215.1938"
     inkscape:cy="315.32551"
     inkscape:window-x="-8"
     inkscape:window-y="-8"
     inkscape:window-maximized="1"
     inkscape:current-layer="g6" /><g
     id="g10"><g
       id="g8"><g
         id="g6"><path
           d="M292.814,333.073l-16.529-9.02c-7.253-3.951-11.75-11.537-11.75-19.797v-28.228c5.709-7.484,22.067-30.814,29.884-61.764     c8.064-6.468,12.783-16.145,12.783-26.53V153.6c0-8.218-3.072-16.188-8.533-22.4V85.803c0.478-4.685,2.347-32.631-17.86-55.68     C263.289,10.129,234.839,0,196.268,0c-38.579,0-67.021,10.129-84.548,30.123c-20.207,23.049-18.338,50.995-17.852,55.68V131.2     c-5.47,6.212-8.533,14.182-8.533,22.4v34.133c0,10.385,4.71,20.062,12.774,26.53c7.817,30.95,24.175,54.281,29.892,61.764v28.228     c0,8.26-4.506,15.846-11.759,19.797l-76.126,41.532c-24.747,13.5-40.115,39.39-40.115,67.576v36.173     c0,4.71,3.814,8.533,8.533,8.533h290.372c-16.145-21.427-25.839-47.966-25.839-76.8     C273.068,376.073,280.372,352.802,292.814,333.073z"
           id="path2"
           style="fill:#888888;fill-opacity:1"
           clip-path="url(#clipPath893)" /><path
           d="m 401.064,290.132 c -61.167,0 -110.933,49.766 -110.933,110.933 0,61.167 49.766,110.933 110.933,110.933 61.167,0 110.933,-49.766 110.933,-110.933 0,-61.167 -49.766,-110.933 -110.933,-110.933 z"
           id="path4"
           inkscape:connector-curvature="0"
           sodipodi:nodetypes="sssss"
           style="fill:#888888;fill-opacity:1" /><g
           aria-label="+"
           style="font-style:normal;font-weight:normal;font-size:251.18994141px;line-height:1.25;font-family:sans-serif;letter-spacing:0px;word-spacing:0px;fill:#000000;fill-opacity:1;stroke:none;stroke-width:6.27974844"
           id="text865"><path
             d="m 483.03418,420.00859 h -65.37317 v 64.7599 h -33.60646 v -64.7599 h -65.37317 v -32.87056 h 65.37317 v -64.75991 h 33.60646 v 64.75991 h 65.37317 z"
             style="font-style:normal;font-variant:normal;font-weight:bold;font-stretch:normal;font-family:sans-serif;-inkscape-font-specification:'sans-serif Bold';fill:#ffffff;fill-opacity:1;stroke-width:6.27974844"
             id="path867" /></g></g></g></g><g
     id="g12" /><g
     id="g14" /><g
     id="g16" /><g
     id="g18" /><g
     id="g20" /><g
     id="g22" /><g
     id="g24" /><g
     id="g26" /><g
     id="g28" /><g
     id="g30" /><g
     id="g32" /><g
     id="g34" /><g
     id="g36" /><g
     id="g38" /><g
     id="g40" /></svg>