<?xml version="1.0" encoding="UTF-8" standalone="no"?>
<!-- Generator: Adobe Illustrator 18.0.0, SVG Export Plug-In . SVG Version: 6.00 Build 0)  -->

<svg
   xmlns:dc="http://purl.org/dc/elements/1.1/"
   xmlns:cc="http://creativecommons.org/ns#"
   xmlns:rdf="http://www.w3.org/1999/02/22-rdf-syntax-ns#"
   xmlns:svg="http://www.w3.org/2000/svg"
   xmlns="http://www.w3.org/2000/svg"
   xmlns:sodipodi="http://sodipodi.sourceforge.net/DTD/sodipodi-0.dtd"
   xmlns:inkscape="http://www.inkscape.org/namespaces/inkscape"
   version="1.1"
   id="Capa_1"
   x="0px"
   y="0px"
   viewBox="0 0 60 60"
   style="enable-background:new 0 0 60 60;"
   xml:space="preserve"
   sodipodi:docname="employee-active.svg"
   inkscape:version="0.92.2 (5c3e80d, 2017-08-06)"><metadata
     id="metadata45"><rdf:RDF><cc:Work
         rdf:about=""><dc:format>image/svg+xml</dc:format><dc:type
           rdf:resource="http://purl.org/dc/dcmitype/StillImage" /><dc:title></dc:title></cc:Work></rdf:RDF></metadata><defs
     id="defs43" /><sodipodi:namedview
     pagecolor="#ffffff"
     bordercolor="#666666"
     borderopacity="1"
     objecttolerance="10"
     gridtolerance="10"
     guidetolerance="10"
     inkscape:pageopacity="0"
     inkscape:pageshadow="2"
     inkscape:window-width="1366"
     inkscape:window-height="715"
     id="namedview41"
     showgrid="false"
     inkscape:zoom="7.8666667"
     inkscape:cx="23.173838"
     inkscape:cy="20.136532"
     inkscape:window-x="-8"
     inkscape:window-y="-8"
     inkscape:window-maximized="1"
     inkscape:current-layer="g8" /><g
     id="g8"><path
       d="M52.179,40.5l-5.596,8.04l-3.949-3.241c-0.426-0.352-1.057-0.287-1.407,0.138c-0.351,0.427-0.289,1.058,0.139,1.407   l4.786,3.929C46.331,50.921,46.556,51,46.786,51c0.045,0,0.091-0.003,0.137-0.01c0.276-0.038,0.524-0.19,0.684-0.419l6.214-8.929   c0.315-0.453,0.204-1.076-0.25-1.392C53.117,39.933,52.495,40.046,52.179,40.5z"
       id="path2" /><path
       d="M47,33c-7.168,0-13,5.832-13,13s5.832,13,13,13s13-5.832,13-13S54.168,33,47,33z M47,57c-6.065,0-11-4.935-11-11   s4.935-11,11-11s11,4.935,11,11S53.065,57,47,57z"
       id="path4" /><path
       d="m 35.986,34.424 c 0.405,-0.809 0.764,-1.65 1.066,-2.522 1.267,-0.602 2.085,-1.864 2.085,-3.289 v -3.545 c 0,-0.867 -0.318,-1.708 -0.887,-2.369 v -4.667 c 0.052,-0.52 0.236,-3.448 -1.883,-5.864 C 34.524,10.065 31.541,9 27.5,9 c -4.041,0 -7.024,1.065 -8.867,3.168 -2.119,2.416 -1.935,5.346 -1.883,5.864 v 4.667 c -0.568,0.661 -0.887,1.502 -0.887,2.369 v 3.545 c 0,1.101 0.494,2.128 1.34,2.821 0.81,3.173 2.477,5.575 3.093,6.389 v 2.894 c 0,0.816 -0.445,1.566 -1.162,1.958 l -7.907,4.313 c -0.252,0.137 -0.502,0.297 -0.752,0.476 C 8.9,48.781 8.926,48.758 8.926,48.758 L 8.9,48.781 9.792,49.533 c 0.058,0.049 0.121,0.089 0.179,0.137 0.474,0.393 0.965,0.766 1.465,1.127 0.162,0.117 0.324,0.235 0.489,0.348 0.534,0.368 1.082,0.717 1.642,1.048 0.122,0.072 0.245,0.142 0.368,0.212 0.613,0.349 1.239,0.678 1.88,0.98 0.047,0.022 0.095,0.042 0.142,0.064 2.089,0.971 4.319,1.684 6.651,2.105 0.061,0.011 0.122,0.022 0.184,0.033 0.724,0.125 1.456,0.225 2.197,0.292 0.09,0.008 0.18,0.013 0.271,0.021 0.738,0.061 1.484,0.1 2.24,0.1 0.749,0 1.488,-0.039 2.222,-0.098 0.093,-0.008 0.186,-0.013 0.279,-0.021 0.735,-0.067 1.461,-0.164 2.178,-0.287 0.062,-0.011 0.125,-0.022 0.187,-0.034 0.534,-0.096 1.061,-0.21 1.583,-0.336 C 32.099,52.614 31,49.436 31,46 c 0,-4.554 1.922,-8.659 4.986,-11.576 z"
       id="path6"
       inkscape:connector-curvature="0"
       sodipodi:nodetypes="ccsscccscccssccscccccccccccccccccscccccsc" /></g><g
     id="g10" /><g
     id="g12" /><g
     id="g14" /><g
     id="g16" /><g
     id="g18" /><g
     id="g20" /><g
     id="g22" /><g
     id="g24" /><g
     id="g26" /><g
     id="g28" /><g
     id="g30" /><g
     id="g32" /><g
     id="g34" /><g
     id="g36" /><g
     id="g38" /></svg>