<?xml version="1.0" encoding="UTF-8" standalone="no"?>
<!-- Generator: Adobe Illustrator 19.0.0, SVG Export Plug-In . SVG Version: 6.00 Build 0)  -->

<svg
   xmlns:dc="http://purl.org/dc/elements/1.1/"
   xmlns:cc="http://creativecommons.org/ns#"
   xmlns:rdf="http://www.w3.org/1999/02/22-rdf-syntax-ns#"
   xmlns:svg="http://www.w3.org/2000/svg"
   xmlns="http://www.w3.org/2000/svg"
   xmlns:sodipodi="http://sodipodi.sourceforge.net/DTD/sodipodi-0.dtd"
   xmlns:inkscape="http://www.inkscape.org/namespaces/inkscape"
   version="1.1"
   id="Capa_1"
   x="0px"
   y="0px"
   viewBox="0 0 511.998 511.998"
   style="enable-background:new 0 0 511.998 511.998;"
   xml:space="preserve"
   sodipodi:docname="employee-view.svg"
   inkscape:version="0.92.2 (5c3e80d, 2017-08-06)"><metadata
     id="metadata47"><rdf:RDF><cc:Work
         rdf:about=""><dc:format>image/svg+xml</dc:format><dc:type
           rdf:resource="http://purl.org/dc/dcmitype/StillImage" /><dc:title /></cc:Work></rdf:RDF></metadata><defs
     id="defs45"><clipPath
       clipPathUnits="userSpaceOnUse"
       id="clipPath910"><circle
         style="fill:#ff0000;fill-opacity:1;stroke:none;stroke-width:3.05613351;stroke-linecap:round;stroke-linejoin:round;stroke-miterlimit:4;stroke-dasharray:none;stroke-dashoffset:8;stroke-opacity:1"
         id="circle912"
         cx="250.05116"
         cy="212.85703"
         r="266.41953" /></clipPath></defs><sodipodi:namedview
     pagecolor="#ffffff"
     bordercolor="#666666"
     borderopacity="1"
     objecttolerance="10"
     gridtolerance="10"
     guidetolerance="10"
     inkscape:pageopacity="0"
     inkscape:pageshadow="2"
     inkscape:window-width="1366"
     inkscape:window-height="715"
     id="namedview43"
     showgrid="false"
     inkscape:zoom="0.65186663"
     inkscape:cx="-112.46299"
     inkscape:cy="324.48696"
     inkscape:window-x="-8"
     inkscape:window-y="-8"
     inkscape:window-maximized="1"
     inkscape:current-layer="g6" /><g
     id="g10"><g
       id="g8"><g
         id="g6"><path
           d="M292.814,333.073l-16.529-9.02c-7.253-3.951-11.75-11.537-11.75-19.797v-28.228c5.709-7.484,22.067-30.814,29.884-61.764     c8.064-6.468,12.783-16.145,12.783-26.53V153.6c0-8.218-3.072-16.188-8.533-22.4V85.803c0.478-4.685,2.347-32.631-17.86-55.68     C263.289,10.129,234.839,0,196.268,0c-38.579,0-67.021,10.129-84.548,30.123c-20.207,23.049-18.338,50.995-17.852,55.68V131.2     c-5.47,6.212-8.533,14.182-8.533,22.4v34.133c0,10.385,4.71,20.062,12.774,26.53c7.817,30.95,24.175,54.281,29.892,61.764v28.228     c0,8.26-4.506,15.846-11.759,19.797l-76.126,41.532c-24.747,13.5-40.115,39.39-40.115,67.576v36.173     c0,4.71,3.814,8.533,8.533,8.533h290.372c-16.145-21.427-25.839-47.966-25.839-76.8     C273.068,376.073,280.372,352.802,292.814,333.073z"
           id="path2"
           style="fill:#888888;fill-opacity:1"
           clip-path="url(#clipPath910)" /><path
           d="m 401.064,290.132 c -61.167,0 -110.933,49.766 -110.933,110.933 0,61.167 49.766,110.933 110.933,110.933 61.167,0 110.933,-49.766 110.933,-110.933 0,-61.167 -49.766,-110.933 -110.933,-110.933 z"
           id="path4"
           inkscape:connector-curvature="0"
           sodipodi:nodetypes="sssss"
           style="fill:#888888;fill-opacity:1" /><path
           style="fill:#ffffff;fill-opacity:1;stroke-width:0.47252706"
           d="m 393.35104,460.12015 c -28.15781,-2.01233 -63.62018,-18.47803 -89.97493,-41.77665 -7.68789,-6.79637 -14.19583,-15.09705 -14.2117,-18.1265 -0.0309,-5.80419 15.37468,-21.07599 33.11895,-32.83274 21.94731,-14.54143 43.52309,-23.44917 64.4523,-26.60953 6.93739,-1.04756 19.55172,-1.0451 26.46152,0.005 24.48426,3.72153 51.62852,16.33943 75.05134,34.88724 6.39813,5.06654 16.11985,14.91254 18.75163,18.99135 2.99475,4.64146 2.95801,6.47446 -0.22476,11.19373 -6.17302,9.15362 -22.31522,22.79797 -38.52905,32.56691 -16.35679,9.85521 -34.10291,17.00027 -49.89069,20.0875 -4.96125,0.97014 -17.23096,2.23476 -19.57073,2.01715 -0.38964,-0.037 -2.83519,-0.21797 -5.43406,-0.40384 z m 13.6517,-13.93846 c 6.59377,-1.14981 13.50665,-3.91097 18.67977,-7.46096 3.0668,-2.10465 8.73328,-7.62423 11.21274,-10.92223 10.02551,-13.33511 11.88643,-32.15177 4.68346,-47.35743 -2.66959,-5.63549 -4.36613,-8.08673 -8.73947,-12.62704 -4.46536,-4.63591 -8.13965,-7.28801 -13.83405,-9.98544 -6.78865,-3.21581 -11.49012,-4.22064 -19.74758,-4.22064 -5.51953,0 -7.67296,0.20562 -11.07598,1.05695 -5.0059,1.25257 -11.97646,4.45134 -16.0242,7.3534 -3.38889,2.42975 -9.38314,8.5168 -11.60714,11.78682 -2.50391,3.68164 -5.60505,10.6882 -6.74234,15.23346 -1.50611,6.01925 -1.50611,16.1327 0,22.15195 1.25257,5.0059 4.45134,11.97646 7.3534,16.02414 2.38875,3.33171 8.5081,9.37962 11.63474,11.49883 9.94907,6.74357 22.5661,9.49818 34.20665,7.46819 z m -15.54183,-17.6585 c -4.27399,-1.30797 -5.31859,-1.79776 -8.87142,-4.1597 -7.85165,-5.21979 -12.60389,-14.29659 -12.62162,-24.10753 -0.006,-4.9265 0.64633,-8.01386 2.61012,-12.29959 3.01884,-6.58802 7.9294,-11.50063 14.51019,-14.51618 4.25899,-1.95163 7.3715,-2.62228 12.16943,-2.62228 5.15884,0 8.02905,0.6827 13.10146,3.11627 10.05428,4.82381 16.18129,14.73687 16.18129,26.18038 0,5.00163 -0.91506,8.97651 -3.03612,13.18839 -3.42817,6.80736 -9.34239,12.05062 -16.47658,14.60733 -4.56483,1.6359 -13.23546,1.9384 -17.56675,0.61316 z"
           id="path1386"
           inkscape:connector-curvature="0" /></g></g></g><g
     id="g12" /><g
     id="g14" /><g
     id="g16" /><g
     id="g18" /><g
     id="g20" /><g
     id="g22" /><g
     id="g24" /><g
     id="g26" /><g
     id="g28" /><g
     id="g30" /><g
     id="g32" /><g
     id="g34" /><g
     id="g36" /><g
     id="g38" /><g
     id="g40" /></svg>