<?xml version="1.0" encoding="iso-8859-1"?>
<!-- Generator: Adobe Illustrator 19.0.0, SVG Export Plug-In . SVG Version: 6.00 Build 0)  -->
<svg version="1.1" id="Layer_1" xmlns="http://www.w3.org/2000/svg" xmlns:xlink="http://www.w3.org/1999/xlink" x="0px" y="0px"
	 viewBox="0 0 511.998 511.998" style="enable-background:new 0 0 511.998 511.998;" xml:space="preserve">
<g>
	<g>
		<g>
			<path d="M415.761,454.828L405.76,409.83c-1.017-4.575-5.075-7.831-9.762-7.831h-20.001V162.134h10c5.522,0,10-4.477,10-10
				s-4.478-10-10-10h-10v-20.001h10c3.787,0,7.25-2.14,8.944-5.527l19.909-39.813c0.006-0.01,0.011-0.021,0.016-0.031l0.078-0.155
				c0.022-0.043,0.035-0.089,0.056-0.133c0.145-0.3,0.273-0.604,0.386-0.914c0.034-0.094,0.067-0.187,0.099-0.281
				c0.102-0.307,0.188-0.617,0.259-0.93c0.016-0.07,0.036-0.139,0.051-0.209c0.076-0.376,0.132-0.755,0.165-1.137
				c0.007-0.086,0.007-0.171,0.012-0.257c0.019-0.296,0.024-0.593,0.017-0.889c-0.004-0.12-0.01-0.24-0.018-0.359
				c-0.018-0.289-0.05-0.576-0.094-0.863c-0.014-0.093-0.023-0.185-0.04-0.278c-0.068-0.381-0.156-0.759-0.27-1.132
				c-0.01-0.033-0.023-0.064-0.034-0.098c-0.106-0.338-0.233-0.67-0.377-0.998c-0.038-0.087-0.079-0.173-0.12-0.26
				c-0.134-0.284-0.282-0.562-0.444-0.835c-0.031-0.051-0.053-0.106-0.084-0.157c-0.017-0.027-0.037-0.05-0.055-0.077
				c-0.389-0.616-0.845-1.201-1.381-1.737c-0.057-0.057-0.115-0.111-0.172-0.168c-0.002-0.002-0.004-0.003-0.005-0.004
				c-20.693-20.648-44.877-36.792-71.89-47.981C313.918,5.689,285.318,0,255.998,0c-29.318,0-57.918,5.689-85.006,16.91
				c-27.011,11.189-51.196,27.333-71.89,47.982c-0.001,0-0.001,0-0.001,0c-0.058,0.058-0.117,0.113-0.175,0.171
				c-0.536,0.536-0.992,1.122-1.381,1.737c-0.018,0.027-0.038,0.05-0.055,0.077c-0.031,0.051-0.053,0.106-0.084,0.157
				c-0.162,0.273-0.311,0.551-0.444,0.835c-0.041,0.087-0.082,0.173-0.12,0.26c-0.144,0.328-0.271,0.66-0.377,0.997
				c-0.011,0.033-0.024,0.065-0.034,0.098c-0.113,0.373-0.201,0.751-0.27,1.132c-0.017,0.092-0.026,0.185-0.04,0.278
				c-0.044,0.286-0.075,0.574-0.094,0.862c-0.008,0.12-0.014,0.239-0.018,0.359c-0.008,0.297-0.002,0.593,0.017,0.89
				c0.005,0.086,0.005,0.171,0.012,0.257c0.033,0.381,0.089,0.761,0.165,1.137c0.015,0.069,0.035,0.138,0.051,0.207
				c0.071,0.314,0.157,0.625,0.259,0.932c0.031,0.093,0.063,0.186,0.098,0.278c0.114,0.313,0.243,0.619,0.389,0.921
				c0.021,0.041,0.033,0.086,0.054,0.127l0.074,0.149c0.008,0.013,0.014,0.027,0.021,0.041l19.906,39.81
				c1.694,3.388,5.156,5.528,8.944,5.528h9.999v20.001H126c-5.522,0-10,4.477-10,10c0,5.523,4.478,10,10,10h9.999v239.866h-20
				c-4.687,0-8.745,3.255-9.762,7.831l-10,45c-0.158,0.712-0.238,1.44-0.238,2.169v45.001c0,5.523,4.478,10,10,10h300
				c5.523,0,10-4.477,10-10v-45.001C415.999,456.268,415.919,455.54,415.761,454.828z M255.998,20
				c45.307,0,88.333,14.812,123.563,42.134H132.438C167.668,34.812,210.694,20,255.998,20z M132.181,102.133l-10.001-20h267.638
				l-10.001,20H132.181z M297.033,142.134H155.999v-20.001h199.999v279.862H155.999V162.134h141.033c5.523,0,10-4.477,10-10
				C307.033,146.611,302.555,142.134,297.033,142.134z M395.999,492h-280v-33.904L124.02,422h263.957l8.022,36.097V492z"/>
			<path d="M175.998,192.13v40.001c0,5.523,4.477,10,10,10h140.002c5.523,0,10-4.477,10-10V192.13c0-5.523-4.477-10-10-10H185.998
				C180.475,182.13,175.998,186.607,175.998,192.13z M195.998,202.13h120.002v20.001H195.998V202.13z"/>
			<path d="M335.962,271.4c-0.01-0.144-0.019-0.287-0.035-0.429c-0.021-0.178-0.051-0.354-0.081-0.532
				c-0.025-0.15-0.049-0.299-0.081-0.446c-0.036-0.166-0.082-0.329-0.126-0.492c-0.042-0.152-0.08-0.305-0.129-0.454
				c-0.051-0.157-0.111-0.311-0.17-0.466c-0.058-0.15-0.112-0.3-0.176-0.447c-0.064-0.148-0.139-0.292-0.211-0.438
				c-0.073-0.148-0.145-0.296-0.226-0.441c-0.075-0.134-0.159-0.265-0.241-0.397c-0.093-0.15-0.185-0.298-0.285-0.442
				c-0.084-0.119-0.174-0.234-0.263-0.351c-0.114-0.149-0.229-0.297-0.352-0.44c-0.035-0.042-0.065-0.086-0.102-0.127
				c-0.061-0.07-0.13-0.13-0.193-0.198c-0.124-0.132-0.249-0.262-0.379-0.387c-0.117-0.112-0.237-0.22-0.358-0.325
				c-0.12-0.105-0.242-0.208-0.367-0.307c-0.137-0.108-0.275-0.211-0.417-0.311c-0.121-0.086-0.244-0.169-0.369-0.25
				c-0.149-0.096-0.3-0.188-0.452-0.275c-0.13-0.074-0.262-0.145-0.395-0.213c-0.151-0.078-0.305-0.152-0.46-0.222
				c-0.145-0.064-0.29-0.125-0.438-0.183c-0.151-0.06-0.303-0.116-0.457-0.168c-0.155-0.053-0.313-0.101-0.471-0.146
				c-0.154-0.044-0.311-0.083-0.467-0.12c-0.157-0.036-0.316-0.069-0.477-0.099c-0.168-0.03-0.337-0.055-0.506-0.077
				c-0.15-0.019-0.3-0.037-0.451-0.049c-0.189-0.016-0.379-0.024-0.569-0.029c-0.087-0.003-0.172-0.013-0.26-0.013h-140
				c-0.095,0-0.188,0.012-0.281,0.014c-0.179,0.005-0.356,0.012-0.534,0.027c-0.162,0.013-0.322,0.032-0.482,0.053
				c-0.159,0.021-0.317,0.044-0.476,0.072c-0.169,0.03-0.337,0.065-0.504,0.105c-0.147,0.034-0.294,0.072-0.44,0.113
				c-0.166,0.047-0.33,0.098-0.493,0.152c-0.146,0.05-0.293,0.103-0.438,0.16c-0.152,0.061-0.304,0.123-0.453,0.19
				c-0.15,0.067-0.3,0.14-0.447,0.215c-0.138,0.07-0.272,0.143-0.406,0.219c-0.15,0.086-0.298,0.176-0.444,0.27
				c-0.127,0.081-0.251,0.165-0.374,0.252c-0.141,0.1-0.279,0.203-0.416,0.312c-0.124,0.098-0.245,0.2-0.364,0.304
				c-0.123,0.107-0.244,0.216-0.363,0.33c-0.127,0.122-0.249,0.249-0.37,0.378c-0.065,0.07-0.136,0.131-0.199,0.203
				c-0.037,0.043-0.068,0.088-0.105,0.131c-0.119,0.139-0.231,0.284-0.343,0.429c-0.092,0.119-0.184,0.238-0.27,0.36
				c-0.098,0.141-0.189,0.287-0.279,0.433c-0.084,0.134-0.17,0.268-0.246,0.405c-0.079,0.141-0.149,0.288-0.222,0.433
				c-0.073,0.147-0.148,0.294-0.215,0.444c-0.063,0.145-0.117,0.295-0.174,0.443c-0.059,0.155-0.12,0.31-0.171,0.468
				c-0.048,0.148-0.087,0.301-0.128,0.453c-0.045,0.164-0.091,0.328-0.127,0.494c-0.032,0.146-0.056,0.296-0.081,0.444
				c-0.03,0.177-0.061,0.354-0.081,0.533c-0.017,0.142-0.025,0.285-0.035,0.428c-0.014,0.19-0.025,0.378-0.029,0.568
				c0,0.054-0.008,0.107-0.008,0.162v99.865c0,5.523,4.477,10,10,10h140.002c5.523,0,10-4.477,10-10v-99.865
				c0-0.055-0.007-0.107-0.008-0.162C335.99,271.779,335.977,271.59,335.962,271.4z M299.624,282.13l-43.626,38.632l-43.625-38.632
				H299.624z M316.001,361.995H195.998v-67.653l53.371,47.263c1.893,1.676,4.261,2.514,6.63,2.514c2.368,0,4.737-0.838,6.63-2.514
				l53.372-47.263V361.995z"/>
			<path d="M225.999,447.002h-51.033c-5.522,0-10,4.477-10,10c0,5.523,4.478,10,10,10h51.033c5.523,0,10-4.477,10-10
				C235.999,451.479,231.522,447.002,225.999,447.002z"/>
			<path d="M146.238,446.998h-0.239c-5.522,0-10,4.477-10,10c0,5.523,4.478,10,10,10h0.238c5.522,0,10-4.477,10-10
				C156.238,451.475,151.76,446.998,146.238,446.998z"/>
			<path d="M325.76,162.136H326c5.523,0,10-4.477,10-10s-4.477-10-10-10h-0.24c-5.522,0-10,4.477-10,10
				S320.238,162.136,325.76,162.136z"/>
		</g>
	</g>
</g>
<g>
</g>
<g>
</g>
<g>
</g>
<g>
</g>
<g>
</g>
<g>
</g>
<g>
</g>
<g>
</g>
<g>
</g>
<g>
</g>
<g>
</g>
<g>
</g>
<g>
</g>
<g>
</g>
<g>
</g>
</svg>
