<?xml version="1.0" encoding="utf-8"?>
<!-- Generator: Adobe Illustrator 16.0.0, SVG Export Plug-In . SVG Version: 6.00 Build 0)  -->
<!DOCTYPE svg PUBLIC "-//W3C//DTD SVG 1.1//EN" "http://www.w3.org/Graphics/SVG/1.1/DTD/svg11.dtd">
<svg version="1.1"
	 id="Layer_1" xmlns:dc="http://purl.org/dc/elements/1.1/" xmlns:cc="http://creativecommons.org/ns#" xmlns:rdf="http://www.w3.org/1999/02/22-rdf-syntax-ns#" xmlns:svg="http://www.w3.org/2000/svg" xmlns:sodipodi="http://sodipodi.sourceforge.net/DTD/sodipodi-0.dtd" xmlns:inkscape="http://www.inkscape.org/namespaces/inkscape" sodipodi:docname="employee.svg" inkscape:version="0.92.2 (5c3e80d, 2017-08-06)"
	 xmlns="http://www.w3.org/2000/svg" xmlns:xlink="http://www.w3.org/1999/xlink" x="0px" y="0px" width="128px" height="128px"
	 viewBox="0 0 128 128" enable-background="new 0 0 128 128" xml:space="preserve">
<g>
	<g>
		<g>
			<path fill="#010002" d="M99.677,9.246H14.8v101.299h84.877V9.246z M94.575,105.443c-4.627,0-70.042,0-74.674,0
				c0-4.709,0-86.396,0-91.091c4.637,0,70.047,0,74.674,0C94.575,19.052,94.575,100.739,94.575,105.443z"/>
			<rect x="28.807" y="25.697" fill="#010002" width="58.021" height="5.353"/>
			<rect x="28.807" y="42.564" fill="#010002" width="58.021" height="5.348"/>
			<polygon fill="#010002" points="103.171,20.727 103.171,25.833 107.978,25.833 107.978,116.919 33.298,116.919 33.298,113.381 
				28.187,113.381 28.187,122.035 113.088,122.035 113.088,20.727 			"/>
			<path fill="#010002" d="M30.975,82.246c1.007,0,1.926-0.285,2.773-0.702l7.279,5.953c-0.039,0.281-0.165,0.523-0.165,0.813
				c0,3.523,2.855,6.374,6.374,6.374s6.374-2.855,6.374-6.374c0-1.012-0.29-1.932-0.707-2.783c3.5-5.246,7.967-11.954,10.648-15.977
				c0.412,0.088,0.798,0.252,1.234,0.252c1.529,0,2.88-0.609,3.979-1.51c2.396,1.398,5.508,3.214,8.189,4.776
				c-0.005,0.093-0.054,0.16-0.054,0.252c0,3.523,2.855,6.374,6.374,6.374c3.52,0,6.37-2.855,6.37-6.374s-2.851-6.374-6.37-6.374
				c-1.558,0-2.933,0.625-4.046,1.554l-8.146-4.753c0.005-0.106,0.063-0.198,0.063-0.305c0-3.519-2.851-6.364-6.365-6.364
				c-3.514,0-6.359,2.851-6.359,6.364c0,1.181,0.407,2.222,0.963,3.17c-3.344,5.023-7.71,11.572-10.444,15.682
				c-0.552-0.165-1.099-0.354-1.704-0.354c-1.316,0-2.473,0.498-3.49,1.181C41.729,81.467,39.231,79.424,37,77.6
				c0.16-0.562,0.349-1.113,0.349-1.723c0-3.528-2.87-6.374-6.375-6.369c-3.528,0-6.379,2.846-6.379,6.369
				C24.591,79.391,27.441,82.246,30.975,82.246z"/>
		</g>
	</g>
</g>
</svg>
