<?xml version="1.0" encoding="utf-8"?>
<!-- Generator: Adobe Illustrator 16.0.0, SVG Export Plug-In . SVG Version: 6.00 Build 0)  -->
<!DOCTYPE svg PUBLIC "-//W3C//DTD SVG 1.1//EN" "http://www.w3.org/Graphics/SVG/1.1/DTD/svg11.dtd">
<svg version="1.1"
	 id="Layer_1" xmlns:dc="http://purl.org/dc/elements/1.1/" xmlns:cc="http://creativecommons.org/ns#" xmlns:rdf="http://www.w3.org/1999/02/22-rdf-syntax-ns#" xmlns:svg="http://www.w3.org/2000/svg" xmlns:sodipodi="http://sodipodi.sourceforge.net/DTD/sodipodi-0.dtd" xmlns:inkscape="http://www.inkscape.org/namespaces/inkscape" sodipodi:docname="employee.svg" inkscape:version="0.92.2 (5c3e80d, 2017-08-06)"
	 xmlns="http://www.w3.org/2000/svg" xmlns:xlink="http://www.w3.org/1999/xlink" x="0px" y="0px" width="128px" height="128px"
	 viewBox="0 0 128 128" enable-background="new 0 0 128 128" xml:space="preserve">
<g>
	<path d="M68.013,125.899l0.925-10.665l34.851-40.337l9.78,7.871l-35.063,40.567L68.013,125.899z"/>
	<path d="M115.735,81.302c-0.688,0-1.374-0.217-1.942-0.677l-7.27-5.843c-1.281-1.046-1.467-2.883-0.383-4.134
		c1.07-1.249,2.986-1.415,4.282-0.369l7.269,5.843c1.282,1.046,1.467,2.883,0.383,4.133
		C117.467,80.944,116.595,81.302,115.735,81.302z"/>
	<path d="M86.383,67.447H45.717c-2.233,0-4.044-1.748-4.044-3.904c0-2.155,1.811-3.903,4.044-3.903h40.666
		c2.233,0,4.044,1.748,4.044,3.903C90.427,65.699,88.629,67.447,86.383,67.447z"/>
	<path d="M86.383,44H45.717c-2.233,0-4.044-1.748-4.044-3.903c0-2.156,1.811-3.904,4.044-3.904h40.666
		c2.233,0,4.044,1.748,4.044,3.904C90.427,42.252,88.629,44,86.383,44z"/>
	<path d="M78.136,90.907H45.717c-2.233,0-4.044-1.748-4.044-3.903c0-2.156,1.811-3.903,4.044-3.903h32.406
		c2.232,0,4.044,1.747,4.044,3.903C82.167,89.159,80.369,90.907,78.136,90.907z"/>
	<path d="M25.364,40.097c0,2.067,1.731,3.75,3.886,3.75c2.154,0,3.885-1.671,3.885-3.75c0-2.079-1.745-3.75-3.885-3.75
		C27.109,36.346,25.364,38.018,25.364,40.097L25.364,40.097z"/>
	<path d="M25.364,63.543c0,2.067,1.731,3.75,3.886,3.75c2.154,0,3.885-1.671,3.885-3.75c0-2.066-1.731-3.75-3.885-3.75
		C27.096,59.793,25.364,61.477,25.364,63.543z"/>
	<path d="M25.364,86.99c0,2.067,1.731,3.751,3.886,3.751c2.154,0,3.885-1.671,3.885-3.751c0-2.079-1.731-3.75-3.885-3.75
		C27.096,83.24,25.364,84.924,25.364,86.99z"/>
	<path d="M58.034,125.759H13.245c-2.233,0-4.044-1.747-4.044-3.903v-113c0-2.156,1.811-3.903,4.044-3.903h16.731
		c2.233,0,4.044,1.748,4.044,3.903c0,2.156-1.811,3.904-4.044,3.904H17.289v105.18h40.745c2.233,0,4.044,1.748,4.044,3.904
		C62.091,124.012,60.268,125.759,58.034,125.759z"/>
	<path d="M102.255,67.447c-2.233,0-4.044-1.748-4.044-3.904V12.759H86.383c-2.233,0-4.044-1.748-4.044-3.904
		c0-2.156,1.811-3.903,4.044-3.903h15.872c2.233,0,4.044,1.748,4.044,3.903v54.688C106.313,65.699,104.502,67.447,102.255,67.447z"
		/>
	<path d="M61.84,12.759h-8.22c-2.233,0-4.044-1.748-4.044-3.904c0-2.156,1.811-3.903,4.044-3.903h8.22
		c2.234,0,4.044,1.748,4.044,3.903C65.885,11.011,64.074,12.759,61.84,12.759z"/>
	<path d="M41.461,20.795c-2.233,0-4.044-1.748-4.044-3.903V4.786c0-2.156,1.811-3.903,4.044-3.903s4.044,1.748,4.044,3.903v12.094
		C45.519,19.048,43.695,20.795,41.461,20.795z"/>
	<path d="M73.986,20.795c-2.233,0-4.045-1.748-4.045-3.903V4.786c0-2.156,1.812-3.903,4.045-3.903S78.03,2.63,78.03,4.786v12.094
		C78.03,19.048,76.22,20.795,73.986,20.795z"/>
	<path d="M65.382,123.156"/>
</g>
</svg>
