<?xml version="1.0" encoding="utf-8"?>
<!-- Generator: Adobe Illustrator 16.0.0, SVG Export Plug-In . SVG Version: 6.00 Build 0)  -->
<!DOCTYPE svg PUBLIC "-//W3C//DTD SVG 1.1//EN" "http://www.w3.org/Graphics/SVG/1.1/DTD/svg11.dtd">
<svg version="1.1"
	 id="Layer_1" xmlns:dc="http://purl.org/dc/elements/1.1/" xmlns:cc="http://creativecommons.org/ns#" xmlns:rdf="http://www.w3.org/1999/02/22-rdf-syntax-ns#" xmlns:svg="http://www.w3.org/2000/svg" xmlns:sodipodi="http://sodipodi.sourceforge.net/DTD/sodipodi-0.dtd" xmlns:inkscape="http://www.inkscape.org/namespaces/inkscape" sodipodi:docname="employee.svg" inkscape:version="0.92.2 (5c3e80d, 2017-08-06)"
	 xmlns="http://www.w3.org/2000/svg" xmlns:xlink="http://www.w3.org/1999/xlink" x="0px" y="0px" width="128px" height="128px"
	 viewBox="0 0 128 128" enable-background="new 0 0 128 128" xml:space="preserve">
<g id="g4" transform="translate(0,10)">
	<path id="path6" inkscape:connector-curvature="0" d="M50.786,9.185h26.429c1.321,0,2.189-1.06,1.93-2.356l-1.46-7.301
		c-0.258-1.297-1.552-2.356-2.872-2.356H53.188c-1.321,0-2.614,1.059-2.873,2.356l-1.461,7.301
		C48.595,8.125,49.465,9.185,50.786,9.185z"/>
	<path id="path8" inkscape:connector-curvature="0" d="M124.063,47.025c0-3.634-2.973-6.607-6.607-6.607h-7.901l-5.727-14.896
		c-1.425-3.699-5.708-7.618-9.519-8.708c0,0.001-9.888-2.824-30.31-2.824c-20.421,0-30.31,2.825-30.31,2.825
		c-3.812,1.09-8.094,5.007-9.518,8.708l-5.729,14.895h-7.901c-3.634,0-6.607,2.974-6.607,6.607s2.973,6.607,6.607,6.607h2.818
		l-2.032,5.286c-1.424,3.699-2.588,9.971-2.588,13.935v31.233c0,4.625,3.784,8.409,8.409,8.409c4.625,0,8.409-3.784,8.409-8.409
		V99.28h76.881v4.806c0,4.625,3.785,8.409,8.409,8.409c4.625,0,8.41-3.784,8.41-8.409V72.853c0-3.964-1.167-10.235-2.588-13.935
		l-2.033-5.286h2.817C121.091,53.632,124.063,50.659,124.063,47.025z M25.188,48.977l6.748-18.316
		c0.458-1.24,1.912-2.254,3.234-2.254h57.662c1.321,0,2.776,1.015,3.232,2.253l6.748,18.316c0.455,1.239-0.25,2.254-1.572,2.254
		H26.761C25.439,51.229,24.731,50.214,25.188,48.977z M24.958,78.858c-3.648,0-6.607-2.961-6.607-6.606
		c0-3.646,2.958-6.606,6.607-6.606c3.648,0,6.607,2.96,6.607,6.606C31.565,75.897,28.606,78.858,24.958,78.858z M103.041,78.858
		c-3.648,0-6.607-2.957-6.607-6.606s2.959-6.606,6.607-6.606c3.65,0,6.607,2.957,6.607,6.606S106.691,78.858,103.041,78.858z"/>
</g>
</svg>
