<?xml version="1.0" encoding="UTF-8" standalone="no"?>
<svg
   xmlns:dc="http://purl.org/dc/elements/1.1/"
   xmlns:cc="http://creativecommons.org/ns#"
   xmlns:rdf="http://www.w3.org/1999/02/22-rdf-syntax-ns#"
   xmlns:svg="http://www.w3.org/2000/svg"
   xmlns="http://www.w3.org/2000/svg"
   xmlns:sodipodi="http://sodipodi.sourceforge.net/DTD/sodipodi-0.dtd"
   xmlns:inkscape="http://www.inkscape.org/namespaces/inkscape"
   enable-background="new 0 0 128 128"
   height="128px"
   id="Layer_1"
   version="1.1"
   viewBox="0 0 128 128"
   width="128px"
   xml:space="preserve"
   sodipodi:docname="employee-view.svg"
   inkscape:version="0.92.2 (5c3e80d, 2017-08-06)"><metadata
     id="metadata13"><rdf:RDF><cc:Work
         rdf:about=""><dc:format>image/svg+xml</dc:format><dc:type
           rdf:resource="http://purl.org/dc/dcmitype/StillImage" /><dc:title></dc:title></cc:Work></rdf:RDF></metadata><defs
     id="defs11" /><sodipodi:namedview
     pagecolor="#ffffff"
     bordercolor="#666666"
     borderopacity="1"
     objecttolerance="10"
     gridtolerance="10"
     guidetolerance="10"
     inkscape:pageopacity="0"
     inkscape:pageshadow="2"
     inkscape:window-width="1366"
     inkscape:window-height="715"
     id="namedview9"
     showgrid="false"
     inkscape:zoom="2.6074563"
     inkscape:cx="75.813966"
     inkscape:cy="80.868541"
     inkscape:window-x="-8"
     inkscape:window-y="-8"
     inkscape:window-maximized="1"
     inkscape:current-layer="Layer_1" /><path
     d="M64.4,77h-3.2c-1.8,0-3.2,1.6-3.2,3.3v2.1c0,1.3,0.7,2.4,1.8,2.9L58.4,103h8.8L66,85.3c1.1-0.5,2-1.6,2-2.9  v-2.1C68,78.6,66.1,77,64.4,77L64.4,77z"
     fill="#3B97D3"
     id="path2" /><path
     d="M109.8,82.4c-6.6-1.8-29.7-7.6-29.7-7.6S74.1,106,67,106h-8.8c-6.4,0-11.5-27.9-13.2-31  c0,0-23.1,5.7-29.7,7.5c-6.6,1.8-8.1,16.8-8.1,27.5c0,0,14.4,8.5,55.4,8.5c40.9,0,55.3-8.5,55.3-8.5  C117.9,99.3,116.5,84.2,109.8,82.4z M11.3,107.4c0.3-14.4,3.2-20.6,5.1-21.1c4.9-1.3,19.2-4.9,26-6.6c0.2,0.9,0.5,1.8,0.7,2.7  c4.3,16.1,7.8,27.5,15.1,27.5H67c5.2,0,9.1-5.5,13.1-18.4c1.4-4.4,2.4-8.8,3.1-11.9c6.9,1.8,20.8,5.3,25.6,6.6  c1.9,0.5,4.8,6.7,5.1,21.1c-5.1,2.1-20.4,7-51.2,7C31.8,114.4,16.4,109.5,11.3,107.4z"
     fill="#2C3E50"
     id="path4" /><path
     d="M84.8,24.9C81.7,10.6,68,8.4,61.4,8.4c-8.1,0-21.2,1.8-23.4,18.8c-1.7,13.1,4.4,30,8.8,35.7  c5,6.3,9.4,9.5,15.6,9.5c5.7,0,9.6-2.8,14.9-10.4C82.1,55,87.3,37,84.8,24.9z M74,59.7c-5,7.3-7.9,8.6-11.6,8.6  c-4.5,0-7.9-2.2-12.5-8c-3.5-4.5-9.6-20.2-8-32.7c1.4-10.6,7.4-15.3,19.4-15.3c15,0,18.6,9.4,19.5,13.4C83.2,36.7,78.3,53.5,74,59.7  z"
     fill="#2C3E50"
     id="path6" /><path
     style="fill:#2c3e50;fill-opacity:1;stroke-width:0.07652429"
     d="M 103.04256,65.69244 C 98.482492,65.366542 92.739478,62.699979 88.471401,58.926839 87.226374,57.82619 86.17243,56.481916 86.169867,55.991305 c -0.0049,-0.939971 2.489872,-3.413192 5.363502,-5.317154 3.5543,-2.354947 7.048432,-3.797522 10.437851,-4.309335 1.12349,-0.169651 3.16634,-0.169251 4.28536,8.6e-4 3.96515,0.602694 8.36108,2.646124 12.15433,5.649884 1.03616,0.820507 2.61056,2.415034 3.03677,3.075588 0.48499,0.751664 0.47904,1.048521 -0.0364,1.812786 -0.9997,1.482399 -3.61388,3.692062 -6.23966,5.274113 -2.64893,1.596016 -5.52286,2.753142 -8.07964,3.253109 -0.80346,0.15711 -2.7905,0.361913 -3.16942,0.326673 -0.0631,-0.0059 -0.45915,-0.03529 -0.88003,-0.06537 z m 2.21085,-2.257289 c 1.06784,-0.186214 2.18736,-0.633372 3.02513,-1.208287 0.49666,-0.340834 1.41433,-1.234716 1.81587,-1.768818 1.6236,-2.159583 1.92497,-5.206882 0.75847,-7.669391 -0.43233,-0.912645 -0.70708,-1.309614 -1.41533,-2.044913 -0.72315,-0.750761 -1.31819,-1.180262 -2.24038,-1.617103 -1.0994,-0.520796 -1.86079,-0.683527 -3.19806,-0.683527 -0.89387,0 -1.24261,0.03328 -1.79372,0.171178 -0.81069,0.202847 -1.93955,0.720875 -2.595062,1.190856 -0.548825,0.393492 -1.519578,1.37927 -1.87974,1.908836 -0.405506,0.596234 -0.907722,1.730922 -1.091903,2.467012 -0.24391,0.974801 -0.24391,2.612644 0,3.587446 0.202848,0.810689 0.720876,1.939551 1.190857,2.595061 0.386848,0.539558 1.377858,1.518992 1.88421,1.862199 1.611218,1.092092 3.654508,1.538193 5.539658,1.209451 z m -2.51695,-2.859746 c -0.69216,-0.211823 -0.86133,-0.291142 -1.4367,-0.673647 -1.27155,-0.845333 -2.041157,-2.315291 -2.044021,-3.904146 -0.0015,-0.797824 0.104667,-1.297811 0.422698,-1.991872 0.488883,-1.066913 1.284133,-1.862497 2.349873,-2.350856 0.68973,-0.316056 1.19379,-0.424671 1.9708,-0.424671 0.83546,0 1.30028,0.110564 2.12174,0.504673 1.62826,0.781203 2.62051,2.386589 2.62051,4.239834 0,0.81 -0.14819,1.453719 -0.49169,2.135817 -0.55518,1.10243 -1.51297,1.951556 -2.66833,2.36561 -0.73926,0.264928 -2.14344,0.31392 -2.84488,0.09926 z"
     id="path1386"
     inkscape:connector-curvature="0" /></svg>